# xmcd
#
# Track frame offsets:
#	151
#	21148
#	38096
#	56380
#	70033
#	99775
#	114721
#	142712
#	177724
#	200207
#	219379
#
# Disc length: 3194 seconds
#
# Revision: 1
# Processed by: cddbd v1.4PL0 Copyright (c) Steve Scherf et al.
# Submitted via: audiograbber 1.81.01
#
DISCID=960c780b
DTITLE=Blue Daddies - Captured LIVE
DYEAR=2001
DGENRE=Blues
TTITLE0=Matchbox
TTITLE1=Take Me To The River
TTITLE2=Smokin Gun
TTITLE3=Boom Boom Boom
TTITLE4=Laundrymat Blues
TTITLE5=Big Blue Daddy
TTITLE6=Cross Cut Saw
TTITLE7=Stormy Monday
TTITLE8=Mustang Sally
TTITLE9=Born Under a Bad Sign
TTITLE10=Letter
EXTD=
EXTT0=
EXTT1=
EXTT2=
EXTT3=
EXTT4=
EXTT5=
EXTT6=
EXTT7=
EXTT8=
EXTT9=
EXTT10=
PLAYORDER=
